# AST/ASF file generated using VICON BodyLanguage
# -----------------------------------------------
:version 1.10
:name VICON
:units
  mass 1.0
  length 0.45
  angle deg
:documentation
   .ast/.asf automatically generated from VICON data using
   VICON BodyBuilder and BodyLanguage model FoxedUp or BRILLIANT.MOD
:root
   order TX TY TZ RX RY RZ
   axis XYZ
   position 0 0 0  
   orientation 0 0 0 
:bonedata
  begin
     id 1 
     name lhipjoint
     direction 0.589753 -0.68606 0.426044 
     length 2.54082 
     axis 0 0 0  XYZ
  end
  begin
     id 2 
     name lfemur
     direction 0.34202 -0.939693 0  
     length 7.04539  
     axis 0 0 20  XYZ
    dof rx ry rz
    limits (-160.0 20.0)
           (-70.0 70.0)
           (-60.0 70.0)
  end
  begin
     id 3 
     name ltibia
     direction 0.34202 -0.939693 0   
     length 7.83772   
     axis 0 0 20   XYZ
    dof rx
    limits (-10.0 170.0)
  end
  begin
     id 4 
     name lfoot
     direction 0.0596604 -0.163915 0.984669   
     length 2.39542   
     axis -90 7.62852e-016 20   XYZ
    dof rx rz
    limits (-45.0 90.0)
           (-70.0 20.0)
  end
  begin
     id 5 
     name ltoes
     direction 1.53514e-011 -4.21954e-011 1   
     length 1.2047   
     axis -90 7.62852e-016 20   XYZ
    dof rx
    limits (-90.0 20.0)
  end
  begin
     id 6 
     name rhipjoint
     direction -0.580585 -0.69168 0.429534   
     length 2.52018  
     axis 0 0 0  XYZ 
  end
  begin
     id 7 
     name rfemur
     direction -0.34202 -0.939693 0   
     length 7.0101   
     axis 0 0 -20   XYZ
    dof rx ry rz
    limits (-160.0 20.0)
           (-70.0 70.0)
           (-70.0 60.0)
  end
  begin
     id 8 
     name rtibia
     direction -0.34202 -0.939693 0   
     length 7.70628   
     axis 0 0 -20   XYZ
    dof rx
    limits (-10.0 170.0)
 end
 begin
     id 9 
     name rfoot
     direction -0.0696237 -0.19129 0.979061   
     length 2.52466  
     axis -90 -7.62852e-016 -20   XYZ
    dof rx rz
    limits (-45.0 90.0)
           (-20.0 70.0)
  end
  begin
     id 10 
     name rtoes
     direction -1.53519e-011 -4.21793e-011 1   
     length 1.266   
     axis -90 -7.62852e-016 -20   XYZ
    dof rx
    limits (-90.0 20.0)
  end
  begin
     id 11 
     name lowerback
     direction 0.00381965 0.995707 -0.0924856   
     length 2.20825   
     axis 0 0 0   XYZ
    dof rx ry rz
    limits (-20.0 45.0)
           (-30.0 30.0)
           (-30.0 30.0)
  end
  begin
     id 12 
     name upperback
     direction -0.0139043 0.999634 -0.0231929   
     length 2.21517   
     axis 0 0 0   XYZ
    dof rx ry rz
    limits (-20.0 45.0)
           (-30.0 30.0)
           (-30.0 30.0)
  end
  begin
     id 13 
     name thorax
     direction -0.0143933 0.999691 0.0202892   
     length 2.22911   
     axis 0 0 0   XYZ
    dof rx ry rz
    limits (-20.0 45.0)
           (-30.0 30.0)
           (-30.0 30.0)
  end
  begin
     id 14 
     name lowerneck
     direction -0.0251153 0.981819 0.188153   
     length 1.61782   
     axis 0 0 0   XYZ
    dof rx ry rz
    limits (-20.0 45.0)
           (-30.0 30.0)
           (-30.0 30.0)
  end
  begin
     id 15 
     name upperneck
     direction 0.0563891 0.969357 -0.239095   
     length 1.64526   
     axis 0 0 0   XYZ
    dof rx ry rz
    limits (-20.0 45.0)
           (-30.0 30.0)
           (-30.0 30.0)
  end
  begin
     id 16
     name head
     direction 0.0208328 0.99459 -0.101773  
     length 1.67436  
     axis 0 0 0   XYZ
    dof rx ry rz
    limits (-20.0 45.0)
           (-30.0 30.0)
           (-30.0 30.0)
  end
  begin
     id 17 
     name lclavicle
     direction 0.917689 0.397224 0.00772059  
     length 3.31102  
     axis 0 0 0   XYZ
    dof ry rz
    limits (-20.0 10.0)
           (0.0 20.0)
  end
  begin
     id 18 
     name lhumerus
     direction 1 -4.4896e-011 2.32308e-027   
     length 5.25537   
     axis 180 -30 -90   XYZ
    dof rx ry rz
    limits (-60.0 90.0)
           (-90.0 90.0)
           (-90.0 90.0)
  end
  begin
     id 19
     name lradius
     direction 1 -4.49005e-011 -2.04271e-027   
     length 3.38855   
     axis 180 -30 -90   XYZ
    dof rx
    limits (-10.0 170.0)
  end
  begin
     id 20
     name lwrist
     direction 1 -4.48892e-011 2.56952e-028   
     length 1.69428   
     axis -5.12785e-016 90 90   XYZ
    dof ry
    limits (-180.0 0.0)
 end
  begin
     id 21 
     name lhand
     direction 1 -4.48966e-011 5.13905e-028   
     length 0.614516   
     axis -3.27915e-016 90 90   XYZ
    dof rx rz
    limits (-90.0 90.0)
           (-45.0 45.0)
  end
  begin
     id 22 
     name lfingers
     direction 1 -4.48979e-011 1.02781e-027   
     length 0.495439   
     axis -6.5583e-016 90 90   XYZ
    dof rx
    limits (0.0 90.0)
  end
  begin
     id 23
     name lthumb
     direction 0.707107 -6.35001e-011 0.707107   
     length 0.711354   
     axis -90 45 2.85299e-015   XYZ
    dof rx rz
    limits (-45.0 45.0)
           (-45.0 45.0)
  end
  begin
     id 24 
     name rclavicle
     direction -0.938556 0.342765 -0.0403177   
     length 3.27019  
     axis 0 0 0   XYZ 
    dof ry rz
    limits (-10.0 20.0)
           (-20.0 0.0)
  end
  begin
     id 25 
     name rhumerus
     direction -1 -4.48966e-011 2.52291e-027  
     length 5.38183   
     axis 180 30 90   XYZ
    dof rx ry rz
    limits (-90.0 60.0)
           (-90.0 90.0)
           (-90.0 90.0)
  end
  begin
     id 26 
     name rradius
     direction -1 -4.4896e-011 1.5797e-027   
     length 3.16988   
     axis 180 30 90   XYZ
    dof rx
    limits (-10.0 170.0)
  end
  begin
     id 27 
     name rwrist
     direction -1 -4.48947e-011 2.56952e-028   
     length 1.58494   
     axis -5.12785e-016 -90 -90   XYZ
    dof ry
    limits (-180.0 0.0)
  end
  begin
     id 28
     name rhand
     direction -1 -4.49098e-011 5.13905e-028   
     length 0.637679   
     axis -3.27915e-016 -90 -90   XYZ
    dof rx rz
    limits (-90.0 90.0)
           (-45.0 45.0)
  end
  begin
     id 29
     name rfingers
     direction -1 -4.49026e-011 1.02781e-027   
     length 0.514113   
     axis -6.5583e-016 -90 -90   XYZ
    dof rx
    limits (0.0 90.0)
  end
  begin
     id 30
     name rthumb
     direction -0.707107 -6.3491e-011 0.707107   
     length 0.738167   
     axis -90 -45 -2.85299e-015   XYZ
    dof rx rz
    limits (-45.0 45.0)
           (-45.0 45.0)
  end
:hierarchy
  begin
    root lhipjoint rhipjoint lowerback
    lhipjoint lfemur
    lfemur ltibia
    ltibia lfoot
    lfoot ltoes
    rhipjoint rfemur
    rfemur rtibia
    rtibia rfoot
    rfoot rtoes
    lowerback upperback
    upperback thorax
    thorax lowerneck lclavicle rclavicle
    lowerneck upperneck
    upperneck head
    lclavicle lhumerus
    lhumerus lradius
    lradius lwrist
    lwrist lhand lthumb
    lhand lfingers
    rclavicle rhumerus
    rhumerus rradius
    rradius rwrist
    rwrist rhand rthumb
    rhand rfingers
  end

#!OML:ASF H:\Swim\Project 1\Capture day 1\Session 1\swimmer.ASF
:FULLY-SPECIFIED
:DEGREES
134
root 4.71692 17.2779 -31.4647 5.41774 2.85833 3.95197
lowerback -1.6218 -0.9516 -2.84638
upperback 3.59487 -1.04193 -2.81808
thorax 4.62244 -0.562971 -1.3776
lowerneck -25.8889 -5.45372 -7.69898
upperneck 30.0091 -7.9582 9.12202
head 15.6802 -2.91112 3.5173
rclavicle 1.74931e-014 9.93923e-015
rhumerus -23.4763 -17.476 -14.3964
rradius 32.7828
rwrist -1.76276
rhand -13.3731 7.20879
rfingers 7.12502
rthumb 12.7336 -22.383
lclavicle 1.74931e-014 9.93923e-015
lhumerus -29.583 13.5048 10.9194
lradius 38.0984
lwrist -16.622
lhand -12.6597 -0.988895
lfingers 7.12502
lthumb 13.4212 28.5588
rfemur -11.199 29.6898 15.2087
rtibia 36.9696
rfoot -43.2518 -34.2958
rtoes 9.14062
lfemur -9.67701 -22.8149 -21.0331
ltibia 30.7285
lfoot -24.3532 25.6477
ltoes 7.10334
135
root 4.7149 17.2787 -31.463 5.45519 2.83074 3.92493
lowerback -1.57202 -0.935471 -2.81085
upperback 3.56573 -1.0261 -2.80056
thorax 4.56317 -0.553807 -1.37671
lowerneck -25.9515 -5.45473 -7.69408
upperneck 29.9931 -7.97521 9.17319
head 15.6918 -2.90857 3.53412
rclavicle 3.97569e-015 -1.11319e-014
rhumerus -23.4874 -17.3248 -14.4451
rradius 32.8913
rwrist -2.04366
rhand -13.6095 6.88219
rfingers 7.12502
rthumb 12.5056 -22.7236
lclavicle 3.97569e-015 -1.11319e-014
lhumerus -29.6079 13.394 11.0063
lradius 38.1835
lwrist -16.5764
lhand -12.6648 -1.01707
lfingers 7.12502
lthumb 13.4163 28.5309
rfemur -11.3431 29.1504 15.1295
rtibia 37.0117
rfoot -42.7519 -34.0819
rtoes 8.83545
lfemur -9.64548 -22.9242 -20.9922
ltibia 30.6259
lfoot -24.4072 25.7375
ltoes 7.19729
136
root 4.71258 17.2797 -31.4614 5.49953 2.79777 3.89407
lowerback -1.5219 -0.917968 -2.77141
upperback 3.53628 -1.00851 -2.78374
thorax 4.50332 -0.543633 -1.37868
lowerneck -26.0207 -5.45664 -7.68394
upperneck 29.9564 -7.99733 9.23476
head 15.6962 -2.90599 3.55261
rclavicle 1.3418e-014 1.19271e-015
rhumerus -23.5007 -17.215 -14.4828
rradius 32.984
rwrist -2.26758
rhand -13.8306 6.6109
rfingers 7.12502
rthumb 12.2924 -23.0078
lclavicle 1.3418e-014 1.19271e-015
lhumerus -29.6395 13.273 11.0947
lradius 38.2782
lwrist -16.526
lhand -12.6947 -1.03809
lfingers 7.12502
lthumb 13.3875 28.5118
rfemur -11.5038 28.5291 15.04
rtibia 37.0518
rfoot -42.1777 -33.832
rtoes 8.47762
lfemur -9.61787 -23.0452 -20.9452
ltibia 30.5191
lfoot -24.4543 25.8484
ltoes 7.25755
137
root 4.70987 17.2807 -31.46 5.55055 2.75973 3.85839
lowerback -1.47095 -0.900404 -2.72906
upperback 3.50794 -0.990941 -2.76548
thorax 4.44418 -0.533417 -1.38083
lowerneck -26.1002 -5.45898 -7.67059
upperneck 29.8996 -8.02209 9.30504
head 15.6941 -2.90275 3.57291
rclavicle 1.38155e-014 2.22639e-014
rhumerus -23.5132 -17.191 -14.4897
rradius 33.036
rwrist -2.34942
rhand -13.9836 6.50913
rfingers 7.12502
rthumb 12.1449 -23.1183
lclavicle 1.38155e-014 2.22639e-014
lhumerus -29.6808 13.1554 11.1834
lradius 38.3813
lwrist -16.4724
lhand -12.7418 -1.04594
lfingers 7.12502
lthumb 13.3421 28.5069
rfemur -11.6799 27.8254 14.9417
rtibia 37.0883
rfoot -41.5293 -33.5347
rtoes 8.0862
lfemur -9.59483 -23.1742 -20.8899
ltibia 30.4082
lfoot -24.4924 25.9762
ltoes 7.29272
138
root 4.70661 17.2819 -31.459 5.60638 2.71714 3.81845
lowerback -1.41645 -0.884827 -2.68736
upperback 3.4828 -0.976089 -2.74382
thorax 4.38645 -0.524679 -1.3793
lowerneck -26.192 -5.46026 -7.65649
upperneck 29.8215 -8.04574 9.38386
head 15.6851 -2.89758 3.59611
rclavicle -4.37326e-015 -4.37326e-015
rhumerus -23.515 -17.2341 -14.4747
rradius 33.0562
rwrist -2.32235
rhand -14.0679 6.54962
rfingers 7.12502
rthumb 12.0637 -23.0826
lclavicle -4.37326e-015 -4.37326e-015
lhumerus -29.7364 13.0468 11.2698
lradius 38.4931
lwrist -16.4076
lhand -12.7937 -1.03953
lfingers 7.12502
lthumb 13.2921 28.5166
rfemur -11.868 27.0449 14.8366
rtibia 37.1201
rfoot -40.8152 -33.1855
rtoes 7.66281
lfemur -9.57607 -23.3045 -20.8262
ltibia 30.2934
lfoot -24.5141 26.1192
ltoes 7.28475
139
root 4.70272 17.2833 -31.4582 5.66605 2.66993 3.77593
lowerback -1.35839 -0.870928 -2.64957
upperback 3.45934 -0.963516 -2.71783
thorax 4.32861 -0.517312 -1.37124
lowerneck -26.2857 -5.45937 -7.6426
upperneck 29.7201 -8.06546 9.46789
head 15.6656 -2.89022 3.62152
rclavicle -1.69961e-014 -1.94809e-014
rhumerus -23.5114 -17.3033 -14.4457
rradius 33.0671
rwrist -2.23823
rhand -14.0964 6.68776
rfingers 7.12502
rthumb 12.0361 -22.9461
lclavicle -1.69961e-014 -1.94809e-014
lhumerus -29.8074 12.948 11.3557
lradius 38.6142
lwrist -16.3301
lhand -12.84 -1.0224
lfingers 7.12502
lthumb 13.2474 28.5366
rfemur -12.0663 26.1867 14.7246
rtibia 37.1467
rfoot -40.0308 -32.7859
rtoes 7.19253
lfemur -9.56028 -23.4351 -20.7562
ltibia 30.1751
lfoot -24.5301 26.2693
ltoes 7.26159
140
root 4.69814 17.2851 -31.4576 5.72749 2.62183 3.73187
lowerback -1.29691 -0.85931 -2.61517
upperback 3.43873 -0.953939 -2.68889
thorax 4.27194 -0.51163 -1.35841
lowerneck -26.3754 -5.45715 -7.63001
upperneck 29.5953 -8.08292 9.5588
head 15.6345 -2.88144 3.64968
rclavicle 2.5842e-015 -7.95139e-016
rhumerus -23.4997 -17.3788 -14.4176
rradius 33.0797
rwrist -2.13391
rhand -14.1001 6.85491
rfingers 7.12502
rthumb 12.0326 -22.7792
lclavicle 2.5842e-015 -7.95139e-016
lhumerus -29.8886 12.8638 11.4407
lradius 38.7403
lwrist -16.242
lhand -12.8718 -1.05546
lfingers 7.12502
lthumb 13.2167 28.5056
rfemur -12.2698 25.2591 14.609
rtibia 37.1687
rfoot -39.191 -32.3379
rtoes 6.67862
lfemur -9.54656 -23.5606 -20.6804
ltibia 30.0531
lfoot -24.5435 26.4164
ltoes 7.2408
141
root 4.6928 17.2872 -31.4573 5.7865 2.57616 3.68839
lowerback -1.2239 -0.850628 -2.58442
upperback 3.41544 -0.948739 -2.65854
thorax 4.20602 -0.508232 -1.34207
lowerneck -26.4438 -5.45177 -7.61962
upperneck 29.4477 -8.09591 9.65585
head 15.5881 -2.87107 3.68098
rclavicle -1.22253e-014 -1.15295e-014
rhumerus -23.4936 -17.3901 -14.405
rradius 33.1269
rwrist -2.08342
rhand -14.1081 6.98839
rfingers 7.12502
rthumb 12.0249 -22.6462
lclavicle -1.22253e-014 -1.15295e-014
lhumerus -29.9824 12.78 11.5248
lradius 38.8723
lwrist -16.1368
lhand -12.8902 -1.15315
lfingers 7.12502
lthumb 13.199 28.409
rfemur -12.4703 24.2763 14.4942
rtibia 37.1871
rfoot -38.3216 -31.846
rtoes 6.12884
lfemur -9.53019 -23.6793 -20.6027
ltibia 29.9281
lfoot -24.5648 26.5516
ltoes 7.25592
142
root 4.68667 17.2895 -31.4569 5.8407 2.53542 3.64828
lowerback -1.13683 -0.847102 -2.55701
upperback 3.39334 -0.950764 -2.62897
thorax 4.13343 -0.508504 -1.32482
lowerneck -26.5069 -5.44404 -7.61168
upperneck 29.2856 -8.10509 9.75882
head 15.534 -2.85892 3.71546
rclavicle -1.97791e-014 -1.70955e-014
rhumerus -23.484 -17.3962 -14.3997
rradius 33.1802
rwrist -1.9932
rhand -14.0933 7.15172
rfingers 7.12502
rthumb 12.0392 -22.482
lclavicle -1.97791e-014 -1.70955e-014
lhumerus -30.0878 12.7102 11.6053
lradius 39.0029
lwrist -16.0356
lhand -12.9104 -1.29712
lfingers 7.12502
lthumb 13.1795 28.2663
rfemur -12.6619 23.247 14.3817
rtibia 37.203
rfoot -37.4362 -31.3121
rtoes 5.5536
lfemur -9.50829 -23.7915 -20.5272
ltibia 29.8008
lfoot -24.5968 26.6713
ltoes 7.31228
143
root 4.67973 17.292 -31.4566 5.88656 2.4983 3.61033
lowerback -1.03516 -0.846409 -2.52966
upperback 3.37374 -0.956921 -2.60202
thorax 4.05513 -0.510775 -1.31022
lowerneck -26.5599 -5.43303 -7.60284
upperneck 29.1092 -8.11025 9.86585
head 15.4711 -2.84491 3.75178
rclavicle 2.78299e-015 3.97569e-016
rhumerus -23.4737 -17.3756 -14.4156
rradius 33.2548
rwrist -1.91931
rhand -14.0928 7.2648
rfingers 7.12502
rthumb 12.0397 -22.3689
lclavicle 2.78299e-015 3.97569e-016
lhumerus -30.198 12.644 11.6845
lradius 39.132
lwrist -15.9293
lhand -12.9402 -1.43003
lfingers 7.12502
lthumb 13.1508 28.1353
rfemur -12.8407 22.1856 14.2759
rtibia 37.2177
rfoot -36.5498 -30.744
rtoes 4.95312
lfemur -9.47738 -23.893 -20.4544
ltibia 29.6727
lfoot -24.6266 26.7818
ltoes 7.37993
144
root 4.67186 17.2945 -31.4564 5.92295 2.46273 3.57441
lowerback -0.918155 -0.846733 -2.50182
upperback 3.3591 -0.964682 -2.57905
thorax 3.97327 -0.513766 -1.29987
lowerneck -26.6108 -5.42072 -7.59041
upperneck 28.9219 -8.11426 9.97413
head 15.4027 -2.83009 3.78771
rclavicle -1.71949e-014 -2.8625e-014
rhumerus -23.4643 -17.3257 -14.4559
rradius 33.3547
rwrist -1.87648
rhand -14.1136 7.30369
rfingers 7.12502
rthumb 12.0196 -22.3312
lclavicle -1.71949e-014 -2.8625e-014
lhumerus -30.3022 12.5833 11.7613
lradius 39.2511
lwrist -15.8225
lhand -12.9789 -1.53833
lfingers 7.12502
lthumb 13.1135 28.0294
rfemur -13.0055 21.1109 14.1794
rtibia 37.2332
rfoot -35.6818 -30.148
rtoes 4.34321
lfemur -9.43601 -23.992 -20.3849
ltibia 29.5441
lfoot -24.6634 26.8854
ltoes 7.48238
145
root 4.66303 17.297 -31.4561 5.95096 2.4268 3.54038
lowerback -0.784679 -0.846581 -2.47545
upperback 3.35261 -0.971964 -2.55886
thorax 3.89058 -0.516546 -1.29139
lowerneck -26.6824 -5.41021 -7.57097
upperneck 28.7341 -8.12014 10.0764
head 15.3385 -2.81557 3.81919
rclavicle 8.54774e-015 1.82882e-014
rhumerus -23.4585 -17.2793 -14.505
rradius 33.4678
rwrist -1.82719
rhand -14.1289 7.32609
rfingers 7.12502
rthumb 12.0048 -22.3096
lclavicle 8.54774e-015 1.82882e-014
lhumerus -30.3929 12.5378 11.8404
lradius 39.3562
lwrist -15.7228
lhand -13.0253 -1.58318
lfingers 7.12502
lthumb 13.0688 27.9874
rfemur -13.1575 20.0425 14.0933
rtibia 37.2507
rfoot -34.8536 -29.5251
rtoes 3.76205
lfemur -9.38622 -24.0797 -20.3175
ltibia 29.4165
lfoot -24.6868 26.9878
ltoes 7.55799
